<svg xmlns="http://www.w3.org/2000/svg" viewBox="0 0 64 64"><g data-name="Cash Register"><circle cx="41" cy="49" r="1" style="fill:#232328"/><circle cx="48" cy="35" r="1" style="fill:#232328"/><circle cx="55" cy="49" r="1" style="fill:#232328"/><path d="M40 28h16v-6H40zm4-4a1 1 0 0 1 2 0v2a1 1 0 0 1-2 0zm-3 0a1 1 0 0 1 2 0v2a1 1 0 0 1-2 0z" style="fill:#232328"/><circle cx="48" cy="42" r="1" style="fill:#232328"/><circle cx="48" cy="49" r="1" style="fill:#232328"/><circle cx="41" cy="35" r="1" style="fill:#232328"/><circle cx="41" cy="42" r="1" style="fill:#232328"/><circle cx="55" cy="35" r="1" style="fill:#232328"/><path d="M61 19a1.003 1.003 0 0 0-1-1h-7v-4h5a1.003 1.003 0 0 0 1-1V3a1.003 1.003 0 0 0-1-1H38a1.003 1.003 0 0 0-1 1v10a1.003 1.003 0 0 0 1 1h5v4H33v10h1a1 1 0 0 1 0 2H6a1 1 0 0 1 0-2h1V18H4a1.003 1.003 0 0 0-1 1v35h58zm-19-9a1 1 0 0 1-2 0V6a1 1 0 0 1 2 0zM28 48a3.999 3.999 0 0 1-4 4h-8a3.999 3.999 0 0 1-4-4v-9a2.006 2.006 0 0 1 2-2h2v-1a4 4 0 0 1 8 0v1h2a2.006 2.006 0 0 1 2 2zM44 6a1 1 0 0 1 2 0v4a1 1 0 0 1-2 0zm7 8v4h-6v-4zM41 52a3 3 0 1 1 3-3 3.009 3.009 0 0 1-3 3zm0-7a3 3 0 1 1 3-3 3.009 3.009 0 0 1-3 3zm0-7a3 3 0 1 1 3-3 3.009 3.009 0 0 1-3 3zm7 14a3 3 0 1 1 3-3 3.009 3.009 0 0 1-3 3zm0-7a3 3 0 1 1 3-3 3.009 3.009 0 0 1-3 3zm0-7a3 3 0 1 1 3-3 3.009 3.009 0 0 1-3 3zm7 14a3 3 0 1 1 3-3 3.009 3.009 0 0 1-3 3zm0-7a3 3 0 1 1 3-3 3.009 3.009 0 0 1-3 3zm0-7a3 3 0 1 1 3-3 3.009 3.009 0 0 1-3 3zm3-9a1.003 1.003 0 0 1-1 1H39a1.003 1.003 0 0 1-1-1v-8a1.003 1.003 0 0 1 1-1h18a1.003 1.003 0 0 1 1 1z" style="fill:#232328"/><path d="M22 36a2 2 0 0 0-4 0v1h4z" style="fill:#232328"/><circle cx="55" cy="42" r="1" style="fill:#232328"/><path d="M24 41a1 1 0 0 1-2 0v-2h-4v2a1 1 0 0 1-2 0v-2h-2v9a2.006 2.006 0 0 0 2 2h8a2.006 2.006 0 0 0 2-2v-9h-2zM11 56h42v3H11z" style="fill:#232328"/><path d="M55 56v4a1.003 1.003 0 0 1-1 1H10a1.003 1.003 0 0 1-1-1v-4H0v4a3.999 3.999 0 0 0 4 4h56a3.999 3.999 0 0 0 4-4v-4zM31 1a.992.992 0 0 0-.66-.94 1.016 1.016 0 0 0-1.11.3l-2.57 3.08L24.09.36a.993.993 0 0 0-1.53 0l-2.57 3.08L17.43.36a1.032 1.032 0 0 0-1.54 0l-2.56 3.08L10.77.36a1.016 1.016 0 0 0-1.11-.3A.992.992 0 0 0 9 1v27h22zM20.5 13h-1a2.5 2.5 0 0 1-.5-4.95V8a1 1 0 0 1 2 0h1a1 1 0 0 1 0 2h-2.5a.5.5 0 0 0 0 1h1a2.5 2.5 0 0 1 .5 4.95V16a1 1 0 0 1-2 0h-1a1 1 0 0 1 0-2h2.5a.5.5 0 0 0 0-1zM19 25h-5a1 1 0 0 1 0-2h5a1 1 0 0 1 0 2zm7-4H14a1 1 0 0 1 0-2h12a1 1 0 0 1 0 2z" style="fill:#232328"/></g></svg>