<svg xmlns="http://www.w3.org/2000/svg" viewBox="0 0 48 48"><defs><style>.cls-1{fill:#424242}.cls-2{fill:#42a5f5}</style></defs><g id="Web_404_error" data-name="Web 404 error"><path class="cls-1" d="M24 34a3 3 0 0 0-3 3v4a3 3 0 0 0 6 0v-4a3 3 0 0 0-3-3zm1 7a1 1 0 0 1-2 0v-4a1 1 0 0 1 2 0zM17 35v3h-2v-3a1 1 0 0 0-2 0v4a1 1 0 0 0 1 1h3v3a1 1 0 0 0 2 0v-8a1 1 0 0 0-2 0zM33 35v3h-2v-3a1 1 0 0 0-2 0v4a1 1 0 0 0 1 1h3v3a1 1 0 0 0 2 0v-8a1 1 0 0 0-2 0z"/><path class="cls-1" d="M44 0H4a4 4 0 0 0-4 4v40a4 4 0 0 0 4 4h40a4 4 0 0 0 4-4V4a4 4 0 0 0-4-4zM4 2h40a2 2 0 0 1 2 2v4H2V4a2 2 0 0 1 2-2zm40 44H4a2 2 0 0 1-2-2V10h44v34a2 2 0 0 1-2 2z"/><path class="cls-1" d="M43 6H33a1 1 0 0 1 0-2h10a1 1 0 0 1 0 2z"/><path class="cls-2" d="M6 5a1 1 0 0 1-2 0 1 1 0 0 1 2 0zM10 5a1 1 0 0 1-2 0 1 1 0 0 1 2 0zM14 5a1 1 0 0 1-2 0 1 1 0 0 1 2 0zM32.59 26l-6.24-11.59a2.66 2.66 0 0 0-4.7 0L15.41 26a3.4 3.4 0 0 0 3 5H29.6a3.4 3.4 0 0 0 2.99-5zm-5.88-.7A1 1 0 0 1 26 27c-.55 0-.69-.27-2-1.59-1.23 1.23-1.44 1.59-2 1.59a1 1 0 0 1-.71-1.71l1.3-1.29-1.3-1.29a1 1 0 0 1 1.42-1.42l1.29 1.3 1.29-1.3a1 1 0 0 1 1.42 1.42L25.41 24z"/></g></svg>